<svg id="Layer_1" data-name="Layer 1" xmlns="http://www.w3.org/2000/svg" viewBox="0 0 900.25 293.33"><defs><style>.cls-1{font-size:175.65px;font-family:Impact;}.cls-2{font-size:59.63px;font-family:BookAntiqua, Book Antiqua;}.cls-3,.cls-4,.cls-5,.cls-6,.cls-7,.cls-8,.cls-9{fill:none;stroke:#000;stroke-miterlimit:10;}.cls-3{stroke-width:3px;}.cls-4{stroke-width:4px;}.cls-5{stroke-width:9px;}.cls-6{stroke-width:2.5px;}.cls-7{stroke-width:10.5px;}.cls-8{stroke-width:13.5px;}.cls-9{stroke-width:7px;}</style></defs><text class="cls-1" transform="translate(330.82 198.18) scale(0.83 1)">InstaSafe</text><text class="cls-2" transform="translate(342.5 252.58) scale(0.93 1)">Cloud. Secure.Instant</text><path d="M109.33,467.81A151.74,151.74,0,0,1,127,446.36L141.64,461s-13.46,14-15.87,17.6Z" transform="translate(-67.77 -393.33)"/><path class="cls-3" d="M362.27,540c0,80.17-63.46,145.17-147.06,145.17-80.6,0-145.94-65-145.94-145.17s65.34-145.17,145.94-145.17C301.8,394.83,362.27,462.8,362.27,540Z" transform="translate(-67.77 -393.33)"/><path class="cls-4" d="M78.77,535.83C77.69,611.25,136.6,678.38,216.5,676.58" transform="translate(-67.77 -393.33)"/><ellipse cx="147.6" cy="148.86" rx="49.83" ry="50.05"/><path class="cls-5" d="M172.3,591.66c-13.14-12.23-23.6-31.06-23.6-50.47a66.68,66.68,0,1,1,133.36,0c0,17.09-8.24,34.65-18.73,46.48" transform="translate(-67.77 -393.33)"/><path class="cls-6" d="M98.35,485.1s28.4-70.09,111-73.74l1.12,22.43s-60.17,5.88-87.7,61.68Z" transform="translate(-67.77 -393.33)"/><path class="cls-7" d="M267,478c17.28,15,29.12,37.64,29.12,62.38,0,42.69-35.61,82.13-80.91,82.13a82.08,82.08,0,0,1-82-82.13c0-21,10.7-42.79,23.61-57.3" transform="translate(-67.77 -393.33)"/><path class="cls-8" d="M170,445.83a106,106,0,0,1,45.36-10.13c58.55,0,106,47.28,106,105.62s-47.46,105.61-106,105.61a106,106,0,0,1-96.94-62.78" transform="translate(-67.77 -393.33)"/><path class="cls-4" d="M213.25,661.5c67.68,0,122.3-53.38,123.07-123.83" transform="translate(-67.77 -393.33)"/><path class="cls-9" d="M214.25,404.36c74.71,1.16,135,61.94,137.31,136.71" transform="translate(-67.77 -393.33)"/></svg>
