<svg viewBox="-327.014 -254.115 797.788 638.230" xmlns="http://www.w3.org/2000/svg" role="img" aria-label="ztna illustration" data-content="-264.138 -195.000 407.898 325.000"><rect x="-4000" y="-4000" width="8000" height="8000" fill="#F7F4EF"/><path d="M-77.94 15.00 L0.00 60.00 L86.60 10.00 L216.51 85.00" fill="none" stroke="#DCD8D0" stroke-width="1.15" stroke-dasharray="6 6" stroke-linejoin="round" stroke-linecap="round"/><circle cx="-77.94" cy="15.00" r="3.6" fill="#F7F4EF" stroke="#DCD8D0" stroke-width="1.1"/><circle cx="216.51" cy="85.00" r="3.6" fill="#F7F4EF" stroke="#DCD8D0" stroke-width="1.1"/>
<path d="M-311.77 140.00 L-181.87 215.00 L-121.24 180.00 L60.62 285.00" fill="none" stroke="#DCD8D0" stroke-width="1.15" stroke-dasharray="6 6" stroke-linejoin="round" stroke-linecap="round"/><circle cx="-311.77" cy="140.00" r="3.6" fill="#F7F4EF" stroke="#DCD8D0" stroke-width="1.1"/><circle cx="60.62" cy="285.00" r="3.6" fill="#F7F4EF" stroke="#DCD8D0" stroke-width="1.1"/>
<g opacity="0.90"><polygon points="288.39,-144.50 269.33,-133.50 269.33,-141.50 288.39,-152.50" fill="#FBFAF7" stroke="#D6D2CA" stroke-width="1.00" stroke-linejoin="round"/><polygon points="269.33,-133.50 264.14,-133.50 264.14,-141.50 269.33,-141.50" fill="#F2EFEA" stroke="#D6D2CA" stroke-width="1.00" stroke-linejoin="round"/><polygon points="264.14,-133.50 239.89,-147.50 239.89,-155.50 264.14,-141.50" fill="#F2EFEA" stroke="#D6D2CA" stroke-width="1.00" stroke-linejoin="round"/><polygon points="264.14,-169.50 288.39,-155.50 288.39,-152.50 269.33,-141.50 264.14,-141.50 239.89,-155.50 239.89,-158.50 258.94,-169.50" fill="#FBFAF7" stroke="#D6D2CA" stroke-width="1.00" stroke-linejoin="round"/></g>
<g opacity="0.90"><polygon points="407.90,-129.50 388.85,-118.50 388.85,-126.50 407.90,-137.50" fill="#FBFAF7" stroke="#D6D2CA" stroke-width="1.00" stroke-linejoin="round"/><polygon points="388.85,-118.50 383.65,-118.50 383.65,-126.50 388.85,-126.50" fill="#F2EFEA" stroke="#D6D2CA" stroke-width="1.00" stroke-linejoin="round"/><polygon points="383.65,-118.50 359.40,-132.50 359.40,-140.50 383.65,-126.50" fill="#F2EFEA" stroke="#D6D2CA" stroke-width="1.00" stroke-linejoin="round"/><polygon points="383.65,-154.50 407.90,-140.50 407.90,-137.50 388.85,-126.50 383.65,-126.50 359.40,-140.50 359.40,-143.50 378.45,-154.50" fill="#FBFAF7" stroke="#D6D2CA" stroke-width="1.00" stroke-linejoin="round"/></g>
<g opacity="0.90"><polygon points="390.58,-15.50 371.52,-4.50 371.52,-12.50 390.58,-23.50" fill="#FBFAF7" stroke="#D6D2CA" stroke-width="1.00" stroke-linejoin="round"/><polygon points="371.52,-4.50 366.33,-4.50 366.33,-12.50 371.52,-12.50" fill="#F2EFEA" stroke="#D6D2CA" stroke-width="1.00" stroke-linejoin="round"/><polygon points="366.33,-4.50 342.08,-18.50 342.08,-26.50 366.33,-12.50" fill="#F2EFEA" stroke="#D6D2CA" stroke-width="1.00" stroke-linejoin="round"/><polygon points="366.33,-40.50 390.58,-26.50 390.58,-23.50 371.52,-12.50 366.33,-12.50 342.08,-26.50 342.08,-29.50 361.13,-40.50" fill="#FBFAF7" stroke="#D6D2CA" stroke-width="1.00" stroke-linejoin="round"/></g>
<polygon points="247.68,-158.05 255.96,-153.27 255.96,-152.27 255.10,-151.77 253.36,-151.77 245.09,-156.55 245.09,-157.55 245.95,-158.05" fill="#D6D2CA" opacity="0.70" stroke="none" stroke-width="0.80"/>
<polygon points="367.19,-143.05 375.47,-138.27 375.47,-137.27 374.61,-136.77 372.88,-136.77 364.60,-141.55 364.60,-142.55 365.46,-143.05" fill="#D6D2CA" opacity="0.70" stroke="none" stroke-width="0.80"/>
<polygon points="349.87,-29.05 358.15,-24.27 358.15,-23.27 357.29,-22.77 355.56,-22.77 347.28,-27.55 347.28,-28.55 348.14,-29.05" fill="#D6D2CA" opacity="0.70" stroke="none" stroke-width="0.80"/>
<g opacity="0.90"><polygon points="288.39,-154.00 269.33,-143.00 269.33,-151.00 288.39,-162.00" fill="#FBFAF7" stroke="#D6D2CA" stroke-width="1.00" stroke-linejoin="round"/><polygon points="269.33,-143.00 264.14,-143.00 264.14,-151.00 269.33,-151.00" fill="#F2EFEA" stroke="#D6D2CA" stroke-width="1.00" stroke-linejoin="round"/><polygon points="264.14,-143.00 239.89,-157.00 239.89,-165.00 264.14,-151.00" fill="#F2EFEA" stroke="#D6D2CA" stroke-width="1.00" stroke-linejoin="round"/><polygon points="264.14,-179.00 288.39,-165.00 288.39,-162.00 269.33,-151.00 264.14,-151.00 239.89,-165.00 239.89,-168.00 258.94,-179.00" fill="#FBFAF7" stroke="#D6D2CA" stroke-width="1.00" stroke-linejoin="round"/></g>
<g opacity="0.90"><polygon points="407.90,-139.00 388.85,-128.00 388.85,-136.00 407.90,-147.00" fill="#FBFAF7" stroke="#D6D2CA" stroke-width="1.00" stroke-linejoin="round"/><polygon points="388.85,-128.00 383.65,-128.00 383.65,-136.00 388.85,-136.00" fill="#F2EFEA" stroke="#D6D2CA" stroke-width="1.00" stroke-linejoin="round"/><polygon points="383.65,-128.00 359.40,-142.00 359.40,-150.00 383.65,-136.00" fill="#F2EFEA" stroke="#D6D2CA" stroke-width="1.00" stroke-linejoin="round"/><polygon points="383.65,-164.00 407.90,-150.00 407.90,-147.00 388.85,-136.00 383.65,-136.00 359.40,-150.00 359.40,-153.00 378.45,-164.00" fill="#FBFAF7" stroke="#D6D2CA" stroke-width="1.00" stroke-linejoin="round"/></g>
<g opacity="0.90"><polygon points="390.58,-25.00 371.52,-14.00 371.52,-22.00 390.58,-33.00" fill="#FBFAF7" stroke="#D6D2CA" stroke-width="1.00" stroke-linejoin="round"/><polygon points="371.52,-14.00 366.33,-14.00 366.33,-22.00 371.52,-22.00" fill="#F2EFEA" stroke="#D6D2CA" stroke-width="1.00" stroke-linejoin="round"/><polygon points="366.33,-14.00 342.08,-28.00 342.08,-36.00 366.33,-22.00" fill="#F2EFEA" stroke="#D6D2CA" stroke-width="1.00" stroke-linejoin="round"/><polygon points="366.33,-50.00 390.58,-36.00 390.58,-33.00 371.52,-22.00 366.33,-22.00 342.08,-36.00 342.08,-39.00 361.13,-50.00" fill="#FBFAF7" stroke="#D6D2CA" stroke-width="1.00" stroke-linejoin="round"/></g>
<polygon points="247.68,-167.55 255.96,-162.77 255.96,-161.77 255.10,-161.27 253.36,-161.27 245.09,-166.05 245.09,-167.05 245.95,-167.55" fill="#D6D2CA" opacity="0.70" stroke="none" stroke-width="0.80"/>
<polygon points="367.19,-152.55 375.47,-147.77 375.47,-146.77 374.61,-146.27 372.88,-146.27 364.60,-151.05 364.60,-152.05 365.46,-152.55" fill="#D6D2CA" opacity="0.70" stroke="none" stroke-width="0.80"/>
<polygon points="349.87,-38.55 358.15,-33.77 358.15,-32.77 357.29,-32.27 355.56,-32.27 347.28,-37.05 347.28,-38.05 348.14,-38.55" fill="#D6D2CA" opacity="0.70" stroke="none" stroke-width="0.80"/>
<path d="M278.86 -139.00 L368.93 -125.00" fill="none" stroke="#DCD8D0" stroke-width="1.15" stroke-dasharray="6 6" stroke-linejoin="round" stroke-linecap="round"/>
<path d="M398.37 -104.00 L351.61 -39.00" fill="none" stroke="#DCD8D0" stroke-width="1.15" stroke-dasharray="6 6" stroke-linejoin="round" stroke-linecap="round"/>
<path d="M353.34 -12.00 L320.43 23.00" fill="none" stroke="#DCD8D0" stroke-width="1.15" stroke-dasharray="6 6" stroke-linejoin="round" stroke-linecap="round"/>
<g><circle cx="327.36" cy="-133.00" r="7.00" fill="#F7F4EF" stroke="#8C8880" stroke-width="1.2"/><path d="M324.84 -135.52 L329.88 -130.48 M329.88 -135.52 L324.84 -130.48" stroke="#8C8880" stroke-width="1.6" stroke-linecap="round"/></g>
<g><circle cx="379.32" cy="-71.00" r="7.00" fill="#F7F4EF" stroke="#8C8880" stroke-width="1.2"/><path d="M376.80 -73.52 L381.84 -68.48 M381.84 -73.52 L376.80 -68.48" stroke="#8C8880" stroke-width="1.6" stroke-linecap="round"/></g>
<g><circle cx="360.27" cy="18.00" r="7.00" fill="#F7F4EF" stroke="#8C8880" stroke-width="1.2"/><path d="M357.75 15.48 L362.79 20.52 M362.79 15.48 L357.75 20.52" stroke="#8C8880" stroke-width="1.6" stroke-linecap="round"/></g>
<text x="103.9" y="-182.0" font-family="ui-monospace,SFMono-Regular,Menlo,monospace" font-size="12.5" font-weight="700" letter-spacing=".1em" fill="#6E6A63" text-anchor="start">NETWORK</text><text x="103.9" y="-165.0" font-family="ui-monospace,SFMono-Regular,Menlo,monospace" font-size="12.5" font-weight="700" letter-spacing=".1em" fill="#6E6A63" text-anchor="start">NOT ACCESSIBLE</text>
<g><polygon points="-74.48,122.50 -155.02,169.00 -155.02,164.50 -74.48,118.00" fill="#F0EDE7" stroke="#33333A" stroke-width="1.10" stroke-linejoin="round"/><polygon points="-155.02,169.00 -170.61,169.00 -170.61,164.50 -155.02,164.50" fill="#E1DDD5" stroke="#33333A" stroke-width="1.10" stroke-linejoin="round"/><polygon points="-170.61,169.00 -263.27,115.50 -263.27,111.00 -170.61,164.50" fill="#E1DDD5" stroke="#33333A" stroke-width="1.10" stroke-linejoin="round"/><polygon points="-167.14,55.50 -74.48,109.00 -74.48,118.00 -155.02,164.50 -170.61,164.50 -263.27,111.00 -263.27,102.00 -182.73,55.50" fill="#FCFBF9" stroke="#33333A" stroke-width="1.10" stroke-linejoin="round"/></g>
<g><polygon points="-76.21,118.00 -155.02,163.50 -155.02,160.90 -76.21,115.40" fill="#2A2A2F" stroke="#33333A" stroke-width="0.90" stroke-linejoin="round"/><polygon points="-155.02,163.50 -170.61,163.50 -170.61,160.90 -155.02,160.90" fill="#202024" stroke="#33333A" stroke-width="0.90" stroke-linejoin="round"/><polygon points="-170.61,163.50 -261.54,111.00 -261.54,108.40 -170.61,160.90" fill="#202024" stroke="#33333A" stroke-width="0.90" stroke-linejoin="round"/><polygon points="-167.14,53.90 -76.21,106.40 -76.21,115.40 -155.02,160.90 -170.61,160.90 -261.54,108.40 -261.54,99.40 -182.73,53.90" fill="#34343A" stroke="#33333A" stroke-width="0.90" stroke-linejoin="round"/></g>
<g><polygon points="-73.61,115.40 -155.02,162.40 -155.02,155.90 -73.61,108.90" fill="#F0EDE7" stroke="#33333A" stroke-width="1.10" stroke-linejoin="round"/><polygon points="-155.02,162.40 -170.61,162.40 -170.61,155.90 -155.02,155.90" fill="#E1DDD5" stroke="#33333A" stroke-width="1.10" stroke-linejoin="round"/><polygon points="-170.61,162.40 -264.14,108.40 -264.14,101.90 -170.61,155.90" fill="#E1DDD5" stroke="#33333A" stroke-width="1.10" stroke-linejoin="round"/><polygon points="-167.14,45.90 -73.61,99.90 -73.61,108.90 -155.02,155.90 -170.61,155.90 -264.14,101.90 -264.14,92.90 -182.73,45.90" fill="#FCFBF9" stroke="#33333A" stroke-width="1.10" stroke-linejoin="round"/></g>
<polygon points="-169.48,51.53 -83.40,101.23 -83.40,107.53 -157.36,150.23 -168.27,150.23 -254.35,100.53 -254.35,94.23 -180.39,51.53" fill="none" opacity="0.50" stroke="#8C8880" stroke-width="0.70"/>
<polygon points="-239.20,120.53 -236.80,121.91 -236.80,120.16 -239.20,118.77" fill="#C9C4BB" stroke="none" stroke-width="1.00" opacity="1.00" stroke-linejoin="round"/>
<polygon points="-233.19,123.99 -230.79,125.38 -230.79,123.62 -233.19,122.24" fill="#F2621A" stroke="none" stroke-width="1.00" opacity="1.00" stroke-linejoin="round"/>
<polygon points="-227.19,127.45 -224.79,128.84 -224.79,127.09 -227.19,125.70" fill="#F2621A" stroke="none" stroke-width="1.00" opacity="1.00" stroke-linejoin="round"/>
<polygon points="-221.19,130.92 -218.79,132.31 -218.79,130.55 -221.19,129.16" fill="#C9C4BB" stroke="none" stroke-width="1.00" opacity="1.00" stroke-linejoin="round"/>
<polygon points="-215.19,134.38 -212.79,135.77 -212.79,134.02 -215.19,132.63" fill="#C9C4BB" stroke="none" stroke-width="1.00" opacity="1.00" stroke-linejoin="round"/>
<g><polygon points="-103.06,107.90 -134.23,125.90 -134.23,120.40 -103.06,102.40" fill="#F0EDE7" stroke="#33333A" stroke-width="1.10" stroke-linejoin="round"/><polygon points="-134.23,125.90 -142.89,125.90 -142.89,120.40 -134.23,120.40" fill="#E1DDD5" stroke="#33333A" stroke-width="1.10" stroke-linejoin="round"/><polygon points="-142.89,125.90 -213.91,84.90 -213.91,79.40 -142.89,120.40" fill="#E1DDD5" stroke="#33333A" stroke-width="1.10" stroke-linejoin="round"/><polygon points="-174.07,56.40 -103.06,97.40 -103.06,102.40 -134.23,120.40 -142.89,120.40 -213.91,79.40 -213.91,74.40 -182.73,56.40" fill="#FCFBF9" stroke="#33333A" stroke-width="1.10" stroke-linejoin="round"/></g>
<polygon points="-182.42,67.17 -121.80,102.17 -121.80,105.17 -134.13,112.29 -139.33,112.29 -199.95,77.29 -199.95,74.29 -187.62,67.17" fill="#F1EEE8" opacity="1.00" stroke="none" stroke-width="0.80"/>
<polygon points="-183.89,68.45 -180.66,70.32 -180.66,70.82 -182.44,71.85 -183.31,71.85 -186.54,69.98 -186.54,69.48 -184.76,68.45" fill="#2E2E33" opacity="0.90" stroke="none" stroke-width="0.80"/>
<polygon points="-178.84,71.37 -175.61,73.23 -175.61,73.73 -177.39,74.76 -178.26,74.76 -181.49,72.90 -181.49,72.40 -179.71,71.37" fill="#2E2E33" opacity="0.90" stroke="none" stroke-width="0.80"/>
<polygon points="-173.79,74.28 -170.56,76.15 -170.56,76.65 -172.34,77.68 -173.21,77.68 -176.44,75.81 -176.44,75.31 -174.65,74.28" fill="#2E2E33" opacity="0.90" stroke="none" stroke-width="0.80"/>
<polygon points="-168.74,77.20 -165.50,79.07 -165.50,79.57 -167.29,80.60 -168.15,80.60 -171.39,78.73 -171.39,78.23 -169.60,77.20" fill="#2E2E33" opacity="0.90" stroke="none" stroke-width="0.80"/>
<polygon points="-163.68,80.12 -160.45,81.98 -160.45,82.48 -162.24,83.51 -163.10,83.51 -166.33,81.65 -166.33,81.15 -164.55,80.12" fill="#2E2E33" opacity="0.90" stroke="none" stroke-width="0.80"/>
<polygon points="-158.63,83.03 -155.40,84.90 -155.40,85.40 -157.18,86.43 -158.05,86.43 -161.28,84.56 -161.28,84.06 -159.50,83.03" fill="#2E2E33" opacity="0.90" stroke="none" stroke-width="0.80"/>
<polygon points="-153.58,85.95 -150.35,87.82 -150.35,88.32 -152.13,89.35 -153.00,89.35 -156.23,87.48 -156.23,86.98 -154.45,85.95" fill="#2E2E33" opacity="0.90" stroke="none" stroke-width="0.80"/>
<polygon points="-148.53,88.87 -145.30,90.73 -145.30,91.23 -147.08,92.26 -147.95,92.26 -151.18,90.40 -151.18,89.90 -149.40,88.87" fill="#2E2E33" opacity="0.90" stroke="none" stroke-width="0.80"/>
<polygon points="-143.48,91.78 -140.24,93.65 -140.24,94.15 -142.03,95.18 -142.89,95.18 -146.13,93.31 -146.13,92.81 -144.34,91.78" fill="#2E2E33" opacity="0.90" stroke="none" stroke-width="0.80"/>
<polygon points="-138.43,94.70 -135.19,96.57 -135.19,97.07 -136.98,98.10 -137.84,98.10 -141.08,96.23 -141.08,95.73 -139.29,94.70" fill="#2E2E33" opacity="0.90" stroke="none" stroke-width="0.80"/>
<polygon points="-133.37,97.62 -130.14,99.48 -130.14,99.98 -131.92,101.01 -132.79,101.01 -136.02,99.15 -136.02,98.65 -134.24,97.62" fill="#2E2E33" opacity="0.90" stroke="none" stroke-width="0.80"/>
<polygon points="-128.32,100.53 -125.09,102.40 -125.09,102.90 -126.87,103.93 -127.74,103.93 -130.97,102.06 -130.97,101.56 -129.19,100.53" fill="#2E2E33" opacity="0.90" stroke="none" stroke-width="0.80"/>
<polygon points="-187.41,70.48 -184.17,72.35 -184.17,72.85 -185.96,73.88 -186.82,73.88 -190.06,72.01 -190.06,71.51 -188.27,70.48" fill="#2E2E33" opacity="0.90" stroke="none" stroke-width="0.80"/>
<polygon points="-182.36,73.40 -179.12,75.26 -179.12,75.76 -180.91,76.79 -181.77,76.79 -185.01,74.93 -185.01,74.43 -183.22,73.40" fill="#2E2E33" opacity="0.90" stroke="none" stroke-width="0.80"/>
<polygon points="-177.30,76.31 -174.07,78.18 -174.07,78.68 -175.86,79.71 -176.72,79.71 -179.95,77.84 -179.95,77.34 -178.17,76.31" fill="#2E2E33" opacity="0.90" stroke="none" stroke-width="0.80"/>
<polygon points="-172.25,79.23 -169.02,81.10 -169.02,81.60 -170.80,82.63 -171.67,82.63 -174.90,80.76 -174.90,80.26 -173.12,79.23" fill="#2E2E33" opacity="0.90" stroke="none" stroke-width="0.80"/>
<polygon points="-167.20,82.15 -163.97,84.01 -163.97,84.51 -165.75,85.54 -166.62,85.54 -169.85,83.68 -169.85,83.18 -168.07,82.15" fill="#2E2E33" opacity="0.90" stroke="none" stroke-width="0.80"/>
<polygon points="-162.15,85.06 -158.92,86.93 -158.92,87.43 -160.70,88.46 -161.57,88.46 -164.80,86.59 -164.80,86.09 -163.01,85.06" fill="#2E2E33" opacity="0.90" stroke="none" stroke-width="0.80"/>
<polygon points="-157.10,87.98 -153.86,89.85 -153.86,90.35 -155.65,91.38 -156.51,91.38 -159.75,89.51 -159.75,89.01 -157.96,87.98" fill="#2E2E33" opacity="0.90" stroke="none" stroke-width="0.80"/>
<polygon points="-152.05,90.90 -148.81,92.76 -148.81,93.26 -150.60,94.29 -151.46,94.29 -154.70,92.43 -154.70,91.93 -152.91,90.90" fill="#2E2E33" opacity="0.90" stroke="none" stroke-width="0.80"/>
<polygon points="-146.99,93.81 -143.76,95.68 -143.76,96.18 -145.54,97.21 -146.41,97.21 -149.64,95.34 -149.64,94.84 -147.86,93.81" fill="#2E2E33" opacity="0.90" stroke="none" stroke-width="0.80"/>
<polygon points="-141.94,96.73 -138.71,98.60 -138.71,99.10 -140.49,100.13 -141.36,100.13 -144.59,98.26 -144.59,97.76 -142.81,96.73" fill="#2E2E33" opacity="0.90" stroke="none" stroke-width="0.80"/>
<polygon points="-136.89,99.65 -133.66,101.51 -133.66,102.01 -135.44,103.04 -136.31,103.04 -139.54,101.18 -139.54,100.68 -137.76,99.65" fill="#2E2E33" opacity="0.90" stroke="none" stroke-width="0.80"/>
<polygon points="-131.84,102.56 -128.60,104.43 -128.60,104.93 -130.39,105.96 -131.25,105.96 -134.49,104.09 -134.49,103.59 -132.70,102.56" fill="#2E2E33" opacity="0.90" stroke="none" stroke-width="0.80"/>
<polygon points="-190.92,72.51 -187.69,74.38 -187.69,74.88 -189.47,75.91 -190.34,75.91 -193.57,74.04 -193.57,73.54 -191.79,72.51" fill="#2E2E33" opacity="0.90" stroke="none" stroke-width="0.80"/>
<polygon points="-185.87,75.43 -182.64,77.29 -182.64,77.79 -184.42,78.82 -185.29,78.82 -188.52,76.96 -188.52,76.46 -186.74,75.43" fill="#2E2E33" opacity="0.90" stroke="none" stroke-width="0.80"/>
<polygon points="-180.82,78.34 -177.59,80.21 -177.59,80.71 -179.37,81.74 -180.24,81.74 -183.47,79.87 -183.47,79.37 -181.69,78.34" fill="#2E2E33" opacity="0.90" stroke="none" stroke-width="0.80"/>
<polygon points="-175.77,81.26 -172.54,83.13 -172.54,83.63 -174.32,84.66 -175.19,84.66 -178.42,82.79 -178.42,82.29 -176.63,81.26" fill="#2E2E33" opacity="0.90" stroke="none" stroke-width="0.80"/>
<polygon points="-170.72,84.18 -167.48,86.04 -167.48,86.54 -169.27,87.57 -170.13,87.57 -173.37,85.71 -173.37,85.21 -171.58,84.18" fill="#2E2E33" opacity="0.90" stroke="none" stroke-width="0.80"/>
<polygon points="-165.66,87.09 -162.43,88.96 -162.43,89.46 -164.22,90.49 -165.08,90.49 -168.31,88.62 -168.31,88.12 -166.53,87.09" fill="#2E2E33" opacity="0.90" stroke="none" stroke-width="0.80"/>
<polygon points="-160.61,90.01 -157.38,91.88 -157.38,92.38 -159.16,93.41 -160.03,93.41 -163.26,91.54 -163.26,91.04 -161.48,90.01" fill="#2E2E33" opacity="0.90" stroke="none" stroke-width="0.80"/>
<polygon points="-155.56,92.93 -152.33,94.79 -152.33,95.29 -154.11,96.32 -154.98,96.32 -158.21,94.46 -158.21,93.96 -156.43,92.93" fill="#2E2E33" opacity="0.90" stroke="none" stroke-width="0.80"/>
<polygon points="-150.51,95.84 -147.28,97.71 -147.28,98.21 -149.06,99.24 -149.93,99.24 -153.16,97.37 -153.16,96.87 -151.38,95.84" fill="#2E2E33" opacity="0.90" stroke="none" stroke-width="0.80"/>
<polygon points="-145.46,98.76 -142.22,100.63 -142.22,101.13 -144.01,102.16 -144.87,102.16 -148.11,100.29 -148.11,99.79 -146.32,98.76" fill="#2E2E33" opacity="0.90" stroke="none" stroke-width="0.80"/>
<polygon points="-140.41,101.68 -137.17,103.54 -137.17,104.04 -138.96,105.07 -139.82,105.07 -143.06,103.21 -143.06,102.71 -141.27,101.68" fill="#2E2E33" opacity="0.90" stroke="none" stroke-width="0.80"/>
<polygon points="-135.35,104.59 -132.12,106.46 -132.12,106.96 -133.90,107.99 -134.77,107.99 -138.00,106.12 -138.00,105.62 -136.22,104.59" fill="#2E2E33" opacity="0.90" stroke="none" stroke-width="0.80"/>
<polygon points="-194.44,74.54 -191.21,76.41 -191.21,76.91 -192.99,77.94 -193.86,77.94 -197.09,76.07 -197.09,75.57 -195.31,74.54" fill="#2E2E33" opacity="0.90" stroke="none" stroke-width="0.80"/>
<polygon points="-189.39,77.46 -186.16,79.32 -186.16,79.82 -187.94,80.85 -188.81,80.85 -192.04,78.99 -192.04,78.49 -190.25,77.46" fill="#2E2E33" opacity="0.90" stroke="none" stroke-width="0.80"/>
<polygon points="-184.34,80.37 -181.10,82.24 -181.10,82.74 -182.89,83.77 -183.75,83.77 -186.99,81.90 -186.99,81.40 -185.20,80.37" fill="#2E2E33" opacity="0.90" stroke="none" stroke-width="0.80"/>
<polygon points="-179.28,83.29 -176.05,85.16 -176.05,85.66 -177.84,86.69 -178.70,86.69 -181.93,84.82 -181.93,84.32 -180.15,83.29" fill="#2E2E33" opacity="0.90" stroke="none" stroke-width="0.80"/>
<polygon points="-174.23,86.21 -171.00,88.07 -171.00,88.57 -172.78,89.60 -173.65,89.60 -176.88,87.74 -176.88,87.24 -175.10,86.21" fill="#2E2E33" opacity="0.90" stroke="none" stroke-width="0.80"/>
<polygon points="-169.18,89.12 -165.95,90.99 -165.95,91.49 -167.73,92.52 -168.60,92.52 -171.83,90.65 -171.83,90.15 -170.05,89.12" fill="#2E2E33" opacity="0.90" stroke="none" stroke-width="0.80"/>
<polygon points="-164.13,92.04 -160.90,93.91 -160.90,94.41 -162.68,95.44 -163.55,95.44 -166.78,93.57 -166.78,93.07 -165.00,92.04" fill="#2E2E33" opacity="0.90" stroke="none" stroke-width="0.80"/>
<polygon points="-159.08,94.96 -155.84,96.82 -155.84,97.32 -157.63,98.35 -158.49,98.35 -161.73,96.49 -161.73,95.99 -159.94,94.96" fill="#2E2E33" opacity="0.90" stroke="none" stroke-width="0.80"/>
<polygon points="-154.03,97.87 -150.79,99.74 -150.79,100.24 -152.58,101.27 -153.44,101.27 -156.68,99.40 -156.68,98.90 -154.89,97.87" fill="#2E2E33" opacity="0.90" stroke="none" stroke-width="0.80"/>
<polygon points="-148.97,100.79 -145.74,102.66 -145.74,103.16 -147.52,104.19 -148.39,104.19 -151.62,102.32 -151.62,101.82 -149.84,100.79" fill="#2E2E33" opacity="0.90" stroke="none" stroke-width="0.80"/>
<polygon points="-143.92,103.71 -140.69,105.57 -140.69,106.07 -142.47,107.10 -143.34,107.10 -146.57,105.24 -146.57,104.74 -144.79,103.71" fill="#2E2E33" opacity="0.90" stroke="none" stroke-width="0.80"/>
<polygon points="-138.87,106.62 -135.64,108.49 -135.64,108.99 -137.42,110.02 -138.29,110.02 -141.52,108.15 -141.52,107.65 -139.74,106.62" fill="#2E2E33" opacity="0.90" stroke="none" stroke-width="0.80"/>
<polygon points="-180.08,90.99 -163.18,100.75 -163.18,102.95 -163.75,103.28 -167.56,103.28 -184.46,93.52 -184.46,91.32 -183.89,90.99" fill="#F8F6F1" opacity="1.00" stroke="#8C8880" stroke-width="0.80"/>
<polygon points="-180.13,57.90 -105.66,100.90 -98.73,38.90 -173.21,-4.10" fill="#2E2E33" stroke="#33333A" stroke-width="1.30" opacity="1.00" stroke-linejoin="round"/>
<polygon points="-176.06,56.35 -108.51,95.35 -102.80,40.45 -170.35,1.45" fill="#F4F2ED" stroke="none" stroke-width="1.00" opacity="1.00" stroke-linejoin="round"/>
<g transform="matrix(0.86603,0.50000,-0.10960,1.05275,-170.35,1.45)"><g transform="translate(6.24,4.17) scale(0.8400)"><path d="M12.0 7.0 l9.8 -3.5 l0 10.5 q0 6.3 -4.2 7.7 l-5.6 4.2 l-5.6 -4.2 q-4.2 -1.4 -4.2 -7.7 l0 -10.5 z" fill="none" stroke="#2B2B2E" stroke-width="2.0" stroke-linejoin="round"/><path d="M8 19 l3.9 4.5 l6.9 -9.0" stroke="#F2621A" stroke-width="2.7" fill="none" stroke-linecap="round" stroke-linejoin="round"/><text x="31.0" y="21.0" font-family="ui-monospace,SFMono-Regular,Menlo,monospace" font-size="10.0" font-weight="700" letter-spacing=".08em" fill="#F2621A" text-anchor="start">USER</text><text x="31.0" y="35.0" font-family="ui-monospace,SFMono-Regular,Menlo,monospace" font-size="10.0" font-weight="700" letter-spacing=".08em" fill="#F2621A" text-anchor="start">DEVICE</text></g></g>
<path d="M-143.76 123.40 L-69.28 120.40 L-31.18 98.40 L-17.32 90.40" fill="none" stroke="#F2621A" stroke-width="6.2" opacity=".18" stroke-linecap="round" stroke-linejoin="round"/><path d="M-143.76 123.40 L-69.28 120.40 L-31.18 98.40 L-17.32 90.40" fill="none" stroke="#F2621A" stroke-width="2.60" stroke-linecap="round" stroke-linejoin="round"/><circle cx="-143.76" cy="123.40" r="4.4" fill="#F2621A"/><circle cx="-143.76" cy="123.40" r="1.9" fill="#F7F4EF"/><circle cx="-17.32" cy="90.40" r="4.4" fill="#F2621A"/><circle cx="-17.32" cy="90.40" r="1.9" fill="#F7F4EF"/>
<g><polygon points="155.88,109.50 82.27,152.00 82.27,147.50 155.88,105.00" fill="#F0EDE7" stroke="#33333A" stroke-width="1.10" stroke-linejoin="round"/><polygon points="82.27,152.00 66.68,152.00 66.68,147.50 82.27,147.50" fill="#E1DDD5" stroke="#33333A" stroke-width="1.10" stroke-linejoin="round"/><polygon points="66.68,152.00 -6.93,109.50 -6.93,105.00 66.68,147.50" fill="#E1DDD5" stroke="#33333A" stroke-width="1.10" stroke-linejoin="round"/><polygon points="82.27,53.50 155.88,96.00 155.88,105.00 82.27,147.50 66.68,147.50 -6.93,105.00 -6.93,96.00 66.68,53.50" fill="#FCFBF9" stroke="#33333A" stroke-width="1.10" stroke-linejoin="round"/></g>
<g><polygon points="154.15,105.00 82.27,146.50 82.27,143.90 154.15,102.40" fill="#2A2A2F" stroke="#33333A" stroke-width="0.90" stroke-linejoin="round"/><polygon points="82.27,146.50 66.68,146.50 66.68,143.90 82.27,143.90" fill="#202024" stroke="#33333A" stroke-width="0.90" stroke-linejoin="round"/><polygon points="66.68,146.50 -5.20,105.00 -5.20,102.40 66.68,143.90" fill="#202024" stroke="#33333A" stroke-width="0.90" stroke-linejoin="round"/><polygon points="82.27,51.90 154.15,93.40 154.15,102.40 82.27,143.90 66.68,143.90 -5.20,102.40 -5.20,93.40 66.68,51.90" fill="#34343A" stroke="#33333A" stroke-width="0.90" stroke-linejoin="round"/></g>
<g><polygon points="156.75,102.40 82.27,145.40 82.27,138.90 156.75,95.90" fill="#F0EDE7" stroke="#33333A" stroke-width="1.10" stroke-linejoin="round"/><polygon points="82.27,145.40 66.68,145.40 66.68,138.90 82.27,138.90" fill="#E1DDD5" stroke="#33333A" stroke-width="1.10" stroke-linejoin="round"/><polygon points="66.68,145.40 -7.79,102.40 -7.79,95.90 66.68,138.90" fill="#E1DDD5" stroke="#33333A" stroke-width="1.10" stroke-linejoin="round"/><polygon points="82.27,43.90 156.75,86.90 156.75,95.90 82.27,138.90 66.68,138.90 -7.79,95.90 -7.79,86.90 66.68,43.90" fill="#FCFBF9" stroke="#33333A" stroke-width="1.10" stroke-linejoin="round"/></g>
<polygon points="79.93,49.53 146.96,88.23 146.96,94.53 79.93,133.23 69.02,133.23 1.99,94.53 1.99,88.23 69.02,49.53" fill="none" opacity="0.50" stroke="#8C8880" stroke-width="0.70"/>
<polygon points="11.43,111.22 13.41,112.37 13.41,110.61 11.43,109.47" fill="#C9C4BB" stroke="none" stroke-width="1.00" opacity="1.00" stroke-linejoin="round"/>
<polygon points="16.39,114.09 18.37,115.23 18.37,113.47 16.39,112.33" fill="#F2621A" stroke="none" stroke-width="1.00" opacity="1.00" stroke-linejoin="round"/>
<polygon points="21.34,116.95 23.32,118.09 23.32,116.33 21.34,115.19" fill="#F2621A" stroke="none" stroke-width="1.00" opacity="1.00" stroke-linejoin="round"/>
<polygon points="26.29,119.81 28.27,120.95 28.27,119.19 26.29,118.05" fill="#C9C4BB" stroke="none" stroke-width="1.00" opacity="1.00" stroke-linejoin="round"/>
<polygon points="31.25,122.67 33.23,123.81 33.23,122.05 31.25,120.91" fill="#C9C4BB" stroke="none" stroke-width="1.00" opacity="1.00" stroke-linejoin="round"/>
<g><polygon points="124.71,94.40 79.67,120.40 79.67,115.40 124.71,89.40" fill="#F0EDE7" stroke="#33333A" stroke-width="1.10" stroke-linejoin="round"/><polygon points="79.67,120.40 69.28,120.40 69.28,115.40 79.67,115.40" fill="#E1DDD5" stroke="#33333A" stroke-width="1.10" stroke-linejoin="round"/><polygon points="69.28,120.40 24.25,94.40 24.25,89.40 69.28,115.40" fill="#E1DDD5" stroke="#33333A" stroke-width="1.10" stroke-linejoin="round"/><polygon points="79.67,57.40 124.71,83.40 124.71,89.40 79.67,115.40 69.28,115.40 24.25,89.40 24.25,83.40 69.28,57.40" fill="#FCFBF9" stroke="#33333A" stroke-width="1.10" stroke-linejoin="round"/></g>
<g transform="matrix(0.86603,0.50000,0.00000,1.00000,-3.46,-32.60)"><rect x="0" y="0" width="96" height="126" rx="7" fill="#F4F2ED" stroke="#33333A" stroke-width="1.4"/><text x="48.0" y="27.0" font-family="ui-monospace,SFMono-Regular,Menlo,monospace" font-size="11.0" font-weight="700" letter-spacing=".12em" fill="#2B2B2E" text-anchor="middle">ZERO TRUST</text><text x="48.0" y="45.0" font-family="ui-monospace,SFMono-Regular,Menlo,monospace" font-size="12.5" font-weight="700" letter-spacing=".12em" fill="#F2621A" text-anchor="middle">ACCESS</text><g transform="translate(29,60)"><path d="M0.0 8.0 l16.1 -5.8 l0 17.2 q0 10.3 -6.9 12.6 l-9.2 6.9 l-9.2 -6.9 q-6.9 -2.3 -6.9 -12.6 l0 -17.2 z" fill="none" stroke="#2B2B2E" stroke-width="2.2" stroke-linejoin="round"/><path d="M8 26 l6.6 7.6 l12.4 -15" stroke="#F2621A" stroke-width="3.5" fill="none" stroke-linecap="round" stroke-linejoin="round"/></g></g>
<path d="M119.51 113.40 L152.42 104.00 L193.99 100.40" fill="none" stroke="#F2621A" stroke-width="6.2" opacity=".18" stroke-linecap="round" stroke-linejoin="round"/><path d="M119.51 113.40 L152.42 104.00 L193.99 100.40" fill="none" stroke="#F2621A" stroke-width="2.60" stroke-linecap="round" stroke-linejoin="round"/><circle cx="119.51" cy="113.40" r="4.4" fill="#F2621A"/><circle cx="119.51" cy="113.40" r="1.9" fill="#F7F4EF"/><circle cx="193.99" cy="100.40" r="4.4" fill="#F2621A"/><circle cx="193.99" cy="100.40" r="1.9" fill="#F7F4EF"/>
<g transform="matrix(0.86603,0.50000,0.00000,1.00000,-79.67,180.00)"><rect x="0" y="0" width="88" height="32" rx="8" fill="#F4F2ED" stroke="#33333A" stroke-width="1.4"/><rect x="10" y="10" width="12" height="15" rx="2.6" fill="none" stroke="#2B2B2E" stroke-width="1.9"/><path d="M12.6 10 v-4 a3.4 3.4 0 0 1 6.8 0 V10" fill="none" stroke="#2B2B2E" stroke-width="1.9"/><text x="30.0" y="16.0" font-family="ui-monospace,SFMono-Regular,Menlo,monospace" font-size="8.0" font-weight="700" letter-spacing=".08em" fill="#2B2B2E" text-anchor="start">ENCRYPTED</text><text x="30.0" y="27.0" font-family="ui-monospace,SFMono-Regular,Menlo,monospace" font-size="8.0" font-weight="700" letter-spacing=".08em" fill="#2B2B2E" text-anchor="start">TUNNEL</text></g>
<g><polygon points="400.10,128.50 319.56,175.00 319.56,170.50 400.10,124.00" fill="#F0EDE7" stroke="#33333A" stroke-width="1.10" stroke-linejoin="round"/><polygon points="319.56,175.00 303.97,175.00 303.97,170.50 319.56,170.50" fill="#E1DDD5" stroke="#33333A" stroke-width="1.10" stroke-linejoin="round"/><polygon points="303.97,175.00 209.58,120.50 209.58,116.00 303.97,170.50" fill="#E1DDD5" stroke="#33333A" stroke-width="1.10" stroke-linejoin="round"/><polygon points="305.71,60.50 400.10,115.00 400.10,124.00 319.56,170.50 303.97,170.50 209.58,116.00 209.58,107.00 290.12,60.50" fill="#FCFBF9" stroke="#33333A" stroke-width="1.10" stroke-linejoin="round"/></g>
<g><polygon points="398.37,124.00 319.56,169.50 319.56,166.90 398.37,121.40" fill="#2A2A2F" stroke="#33333A" stroke-width="0.90" stroke-linejoin="round"/><polygon points="319.56,169.50 303.97,169.50 303.97,166.90 319.56,166.90" fill="#202024" stroke="#33333A" stroke-width="0.90" stroke-linejoin="round"/><polygon points="303.97,169.50 211.31,116.00 211.31,113.40 303.97,166.90" fill="#202024" stroke="#33333A" stroke-width="0.90" stroke-linejoin="round"/><polygon points="305.71,58.90 398.37,112.40 398.37,121.40 319.56,166.90 303.97,166.90 211.31,113.40 211.31,104.40 290.12,58.90" fill="#34343A" stroke="#33333A" stroke-width="0.90" stroke-linejoin="round"/></g>
<g><polygon points="400.97,121.40 319.56,168.40 319.56,161.90 400.97,114.90" fill="#F0EDE7" stroke="#33333A" stroke-width="1.10" stroke-linejoin="round"/><polygon points="319.56,168.40 303.97,168.40 303.97,161.90 319.56,161.90" fill="#E1DDD5" stroke="#33333A" stroke-width="1.10" stroke-linejoin="round"/><polygon points="303.97,168.40 208.71,113.40 208.71,106.90 303.97,161.90" fill="#E1DDD5" stroke="#33333A" stroke-width="1.10" stroke-linejoin="round"/><polygon points="305.71,50.90 400.97,105.90 400.97,114.90 319.56,161.90 303.97,161.90 208.71,106.90 208.71,97.90 290.12,50.90" fill="#FCFBF9" stroke="#33333A" stroke-width="1.10" stroke-linejoin="round"/></g>
<polygon points="303.37,56.53 391.18,107.23 391.18,113.53 317.23,156.23 306.31,156.23 218.50,105.53 218.50,99.23 292.46,56.53" fill="none" opacity="0.50" stroke="#8C8880" stroke-width="0.70"/>
<polygon points="234.17,125.82 236.61,127.23 236.61,125.48 234.17,124.07" fill="#C9C4BB" stroke="none" stroke-width="1.00" opacity="1.00" stroke-linejoin="round"/>
<polygon points="240.27,129.34 242.71,130.75 242.71,129.00 240.27,127.59" fill="#F2621A" stroke="none" stroke-width="1.00" opacity="1.00" stroke-linejoin="round"/>
<polygon points="246.37,132.86 248.81,134.27 248.81,132.52 246.37,131.11" fill="#F2621A" stroke="none" stroke-width="1.00" opacity="1.00" stroke-linejoin="round"/>
<polygon points="252.46,136.38 254.90,137.79 254.90,136.04 252.46,134.63" fill="#C9C4BB" stroke="none" stroke-width="1.00" opacity="1.00" stroke-linejoin="round"/>
<polygon points="258.56,139.91 261.00,141.31 261.00,139.56 258.56,138.15" fill="#C9C4BB" stroke="none" stroke-width="1.00" opacity="1.00" stroke-linejoin="round"/>
<g transform="matrix(0.86603,0.50000,0.00000,1.00000,209.58,-4.60)"><rect x="0" y="0" width="116" height="112" rx="7" fill="#F4F2ED" stroke="#33333A" stroke-width="1.4"/><rect x="0" y="0" width="116" height="16" rx="7" fill="#2E2E33"/><rect x="0" y="9" width="116" height="7" fill="#2E2E33"/><circle cx="11" cy="8" r="2.2" fill="#8E8A84"/><circle cx="20" cy="8" r="2.2" fill="#8E8A84"/><circle cx="29" cy="8" r="2.2" fill="#8E8A84"/><rect x="12" y="27" width="10" height="10" rx="2.4" fill="none" stroke="#2B2B2E" stroke-width="1.8"/><rect x="25" y="27" width="10" height="10" rx="2.4" fill="none" stroke="#2B2B2E" stroke-width="1.8"/><rect x="12" y="40" width="10" height="10" rx="2.4" fill="none" stroke="#2B2B2E" stroke-width="1.8"/><rect x="25" y="40" width="10" height="10" rx="2.4" fill="none" stroke="#2B2B2E" stroke-width="1.8"/><text x="44.0" y="43.0" font-family="ui-monospace,SFMono-Regular,Menlo,monospace" font-size="17.0" font-weight="700" letter-spacing=".08em" fill="#2B2B2E" text-anchor="start">ERP</text><rect x="10" y="60" width="96" height="38" rx="5" fill="#EBF7EF" stroke="#1E9E52" stroke-width="1.2"/><text x="19.0" y="76.0" font-family="ui-monospace,SFMono-Regular,Menlo,monospace" font-size="9.6" font-weight="700" letter-spacing=".08em" fill="#1E9E52" text-anchor="start">ACCESS</text><text x="19.0" y="89.0" font-family="ui-monospace,SFMono-Regular,Menlo,monospace" font-size="9.6" font-weight="700" letter-spacing=".08em" fill="#1E9E52" text-anchor="start">GRANTED</text><circle cx="88.0" cy="79.0" r="11.0" fill="#1E9E52"/><path d="M83.4 79.0 l3.5 4.0 l6.2 -6.8" stroke="#fff" stroke-width="2" fill="none" stroke-linecap="round" stroke-linejoin="round"/></g>
<g transform="matrix(0.86603,0.50000,0.00000,1.00000,102.19,189.00)"><rect x="0" y="0" width="152" height="60" rx="7" fill="#F4F2ED" stroke="#33333A" stroke-width="1.4"/><rect x="0" y="9" width="3.2" height="42" rx="1.6" fill="#F2621A"/><circle cx="24" cy="21" r="9.2" fill="none" stroke="#F2621A" stroke-width="2.1"/><path d="M19.8 21 l3.3 3.3 l6.2 -7.2" stroke="#F2621A" stroke-width="2.1" fill="none" stroke-linecap="round" stroke-linejoin="round"/><text x="40.0" y="27.0" font-family="ui-monospace,SFMono-Regular,Menlo,monospace" font-size="15.5" font-weight="700" letter-spacing=".08em" fill="#F2621A" text-anchor="start">ZTNA</text><text x="16.0" y="44.0" font-family="ui-monospace,SFMono-Regular,Menlo,monospace" font-size="8.4" font-weight="500" letter-spacing=".02em" fill="#6E6A63" text-anchor="start">No network exposure.</text><text x="16.0" y="55.0" font-family="ui-monospace,SFMono-Regular,Menlo,monospace" font-size="8.4" font-weight="500" letter-spacing=".02em" fill="#6E6A63" text-anchor="start">Least-privilege access.</text></g></svg>
